{"glyphs":{":":{"x_min":0,"x_max":274,"ha":274,"o":"m 65 -12 l 65 -9 q 71 38 71 61 q 71 67 70 75 q 70 82 70 83 q 70 120 94 136 q 118 153 170 153 q 193 153 201 143 q 210 132 210 101 q 210 48 185 28 q 160 8 65 -12 z m 65 233 q 65 235 65 238 q 71 283 71 305 q 71 312 70 319 q 70 327 70 328 q 70 364 94 381 q 118 398 170 398 q 193 398 201 388 q 210 377 210 346 q 210 293 185 273 q 160 253 65 233 z"},"$":{"x_min":0,"x_max":507,"ha":507,"o":"m 288 75 q 324 83 344 105 q 363 127 363 161 q 363 194 345 217 q 328 240 286 260 q 286 179 287 142 q 287 105 288 75 z m 237 409 q 237 430 237 458 q 238 487 238 495 q 238 510 238 527 q 237 544 237 563 q 200 559 180 540 q 161 521 161 489 q 161 464 177 447 q 192 430 237 409 z m 302 637 q 339 634 373 632 q 407 631 440 631 l 440 484 l 364 443 l 364 471 q 364 519 350 537 q 336 555 299 559 q 296 521 294 485 q 293 449 293 414 l 293 385 q 393 340 431 296 q 469 253 469 190 q 469 112 425 65 q 380 18 292 3 l 292 -23 q 292 -35 292 -50 q 293 -64 294 -94 l 209 -135 q 214 -92 218 -60 q 221 -28 222 0 l 203 0 q 192 0 151 3 q 109 6 78 6 l 57 6 l 57 190 l 133 225 l 133 216 q 133 135 153 107 q 174 78 228 76 q 229 104 229 130 q 230 155 230 178 q 230 220 230 243 q 229 267 229 288 q 127 334 91 373 q 54 411 54 467 q 54 541 103 586 q 151 632 235 637 q 234 649 234 661 q 234 672 234 692 l 311 728 q 308 701 306 678 q 303 656 302 637 z"},"?":{"x_min":0,"x_max":382,"ha":382,"o":"m 242 137 q 239 117 238 101 q 237 85 237 71 l 237 59 q 237 17 216 2 q 195 -12 148 -12 q 128 -12 120 -3 q 112 7 112 31 q 112 83 134 101 q 157 119 242 137 z m 248 178 l 217 166 q 198 158 184 155 q 169 152 156 152 q 127 152 111 170 q 94 188 94 221 q 94 243 103 266 q 112 290 135 323 q 142 333 155 352 q 205 420 205 453 q 205 489 173 512 q 141 535 88 535 q 70 535 61 535 q 52 535 43 534 l 113 648 l 116 648 q 210 648 268 604 q 326 560 326 491 q 326 461 311 427 q 296 392 267 355 q 263 350 254 339 q 205 278 205 251 q 205 234 216 216 q 227 198 248 178 z"},"<":{"x_min":0,"x_max":833,"ha":833,"o":"m 704 583 l 704 476 l 268 298 l 704 120 l 704 13 l 129 250 l 129 347 z"},"'":{"x_min":0,"x_max":178,"ha":178,"o":"m 99 416 l 79 416 l 40 641 q 39 647 39 651 q 38 656 38 659 q 38 685 52 700 q 65 715 89 715 q 112 715 126 701 q 139 687 139 661 q 139 653 139 649 q 139 645 138 641 z"},"=":{"x_min":0,"x_max":833,"ha":833,"o":"m 124 242 l 709 242 l 709 145 l 124 145 z m 124 452 l 709 452 l 709 355 l 124 355 z"},"a":{"x_min":0,"x_max":463,"ha":463,"o":"m 262 171 l 262 219 l 203 194 q 164 178 151 164 q 138 149 138 127 q 138 103 153 88 q 168 73 192 73 q 229 73 245 96 q 262 119 262 171 z m 382 174 q 382 109 393 93 q 404 77 437 73 l 410 0 l 269 0 l 269 48 q 246 20 214 4 q 183 -12 150 -12 q 84 -12 48 21 q 12 54 12 113 q 12 158 36 186 q 60 214 125 242 l 262 300 l 262 321 q 262 348 245 359 q 228 371 188 371 q 166 371 132 367 q 98 363 53 356 l 87 448 q 125 458 156 463 q 187 468 209 468 q 307 468 344 437 q 382 405 382 308 z"},"L":{"x_min":0,"x_max":512,"ha":512,"o":"m 320 637 l 294 565 q 254 565 240 551 q 227 538 227 477 l 227 465 l 227 140 q 227 130 228 117 q 228 104 229 89 q 250 85 267 83 q 284 81 298 81 q 359 81 382 105 q 405 129 408 202 l 492 235 l 492 0 l 26 0 l 53 72 q 81 73 92 84 q 102 95 102 133 l 102 159 l 102 160 l 102 477 q 102 538 89 551 q 75 565 35 565 l 62 637 z"},"3":{"x_min":0,"x_max":507,"ha":507,"o":"m 50 -90 l 91 -21 q 202 5 272 68 q 342 130 342 198 q 342 242 316 265 q 290 288 240 288 q 206 288 170 279 q 134 270 97 251 l 136 371 q 176 389 208 397 q 240 406 269 406 q 275 406 281 406 q 287 405 293 405 q 314 428 324 448 q 334 467 334 485 q 334 510 314 525 q 295 539 261 539 q 213 539 154 517 q 94 494 27 451 l 79 595 q 129 621 179 635 q 229 648 277 648 q 358 648 405 613 q 451 577 451 516 q 451 478 431 445 q 410 413 367 382 q 417 359 444 315 q 471 271 471 214 q 471 102 355 16 q 239 -69 50 -90 z"},";":{"x_min":0,"x_max":274,"ha":274,"o":"m 70 -81 q 83 -61 88 -44 q 94 -28 94 -12 q 94 13 85 52 q 76 90 76 104 q 76 125 97 139 q 118 153 151 153 q 175 153 188 139 q 200 125 200 97 q 200 33 168 -15 q 137 -62 77 -87 z m 65 235 q 65 237 65 240 q 71 285 71 307 q 71 313 70 321 q 70 329 70 330 q 70 367 94 383 q 118 400 170 400 q 193 400 201 390 q 210 379 210 348 q 210 295 185 275 q 160 255 65 235 z"},"J":{"x_min":0,"x_max":306,"ha":306,"o":"m 295 637 l 268 565 q 239 563 229 553 q 219 542 219 502 l 219 476 l 219 121 q 219 -43 171 -119 q 123 -194 7 -225 l 7 -172 q 55 -150 75 -102 q 94 -54 94 82 l 94 489 q 94 541 79 553 q 63 565 16 565 l 4 565 l 31 637 z"},"V":{"x_min":0,"x_max":589,"ha":589,"o":"m 310 637 l 283 565 l 279 565 q 242 565 224 552 q 206 540 206 514 q 206 497 219 455 q 231 413 266 316 l 330 141 l 390 305 l 392 311 q 454 480 454 516 q 454 542 433 554 q 412 566 369 566 q 366 566 359 565 q 352 565 348 565 l 375 637 l 607 637 q 573 565 542 490 q 511 416 483 339 l 434 204 q 425 180 408 126 q 391 72 370 1 q 334 -5 310 -8 q 285 -11 263 -12 q 230 69 183 199 l 180 207 l 128 353 q 121 372 110 404 q 53 565 -9 565 l -16 565 l 11 637 z"},"\"":{"x_min":0,"x_max":345,"ha":345,"o":"m 265 416 l 245 416 l 206 641 q 205 647 205 651 q 204 656 204 659 q 204 685 218 700 q 231 715 255 715 q 279 715 292 700 q 306 686 306 661 q 306 658 306 654 q 305 649 304 641 z m 99 416 l 79 416 l 40 641 q 40 645 39 648 q 39 652 39 659 q 39 685 53 700 q 66 715 89 715 q 112 715 126 701 q 139 687 139 661 q 139 653 139 649 q 139 645 138 641 z"},"7":{"x_min":0,"x_max":507,"ha":507,"o":"m 249 14 l 77 -83 q 150 47 217 184 q 284 320 367 511 q 224 510 154 505 q 84 501 35 491 l 86 639 q 106 638 129 638 q 151 637 191 637 l 273 637 l 305 637 q 377 637 424 640 q 472 642 514 648 q 420 451 356 296 q 291 142 249 14 z"},"S":{"x_min":0,"x_max":516,"ha":516,"o":"m 444 491 l 360 449 q 360 454 359 463 q 359 472 359 477 q 359 531 341 551 q 323 571 277 571 q 230 571 206 552 q 181 534 181 499 q 181 458 279 405 q 313 386 333 375 q 417 326 446 285 q 475 244 475 182 q 475 142 458 104 q 440 67 410 40 q 378 13 338 1 q 297 -11 228 -11 q 208 -11 159 -8 q 111 -5 82 -5 l 61 -5 l 61 206 l 145 248 l 145 216 q 145 127 167 97 q 189 67 248 67 q 296 67 323 92 q 349 117 349 162 q 349 224 228 287 q 210 297 200 302 q 114 348 84 385 q 55 422 55 476 q 55 555 109 602 q 163 649 256 649 q 281 649 344 646 q 406 643 444 643 z"},"}":{"x_min":0,"x_max":500,"ha":500,"o":"m 84 740 q 199 740 241 705 q 283 669 283 571 l 283 477 q 283 396 311 366 q 338 336 414 329 l 414 292 q 338 285 311 255 q 283 225 283 144 l 283 50 q 283 -47 242 -83 q 200 -119 90 -119 l 84 -119 l 84 -90 q 142 -89 164 -63 q 186 -38 186 39 l 186 105 q 186 215 212 255 q 238 294 308 310 q 238 326 212 366 q 186 406 186 516 l 186 581 q 186 657 164 683 q 142 709 84 710 z"},"Z":{"x_min":0,"x_max":544,"ha":544,"o":"m 471 637 l 503 556 q 417 440 336 323 q 255 205 176 81 l 275 81 q 365 81 392 108 q 418 134 444 217 l 531 217 l 478 0 l 54 0 l 22 81 q 105 188 188 306 q 271 424 355 556 l 275 556 q 189 556 163 533 q 137 511 110 439 l 23 439 l 72 637 z"},"x":{"x_min":0,"x_max":476,"ha":476,"o":"m 248 456 l 227 400 q 215 400 208 395 q 202 391 202 382 q 202 376 206 368 q 210 360 218 349 l 251 305 l 273 330 q 289 347 295 359 q 301 370 301 380 q 301 388 294 393 q 287 398 273 400 l 294 456 l 480 456 l 453 384 l 436 384 q 416 384 394 368 q 372 353 343 319 l 289 255 l 361 156 q 398 106 420 91 q 443 75 473 72 l 447 0 l 215 0 l 237 59 q 253 59 262 65 q 271 71 271 82 q 271 91 266 101 q 261 111 249 128 l 219 170 l 197 144 q 181 125 172 109 q 163 94 163 84 q 163 74 170 68 q 177 62 191 59 l 169 0 l -11 0 l 16 72 q 55 73 120 149 l 129 160 l 181 221 l 112 314 q 84 352 60 368 q 35 384 5 384 l 2 384 l 29 456 z"},")":{"x_min":0,"x_max":329,"ha":329,"o":"m 32 -121 q 91 -35 120 52 q 149 139 149 230 q 149 327 118 433 q 88 540 30 641 l 93 708 q 98 713 101 715 q 104 716 108 716 q 119 716 127 704 q 136 691 152 651 q 195 547 214 463 q 233 379 233 299 q 233 182 202 85 q 171 -13 100 -121 z"},"&":{"x_min":0,"x_max":613,"ha":613,"o":"m 346 97 l 205 273 q 181 256 170 234 q 158 213 158 185 q 158 137 189 107 q 220 77 269 77 q 290 77 310 82 q 330 87 346 97 z m 470 637 l 429 532 l 297 532 q 238 532 217 522 q 196 512 196 488 q 196 476 214 448 q 233 420 280 362 l 420 190 q 425 204 428 218 q 430 231 430 247 q 430 310 401 341 q 372 373 312 376 l 343 458 l 586 458 l 555 376 l 460 376 q 483 354 494 323 q 506 293 506 255 q 506 220 497 189 q 487 157 468 126 q 490 97 517 84 q 545 72 588 72 l 605 72 l 578 0 l 425 0 l 392 43 q 350 16 308 2 q 267 -12 227 -12 q 141 -12 89 32 q 37 76 37 147 q 37 195 68 238 q 99 281 166 324 l 141 354 q 113 389 101 411 q 89 434 89 452 q 89 486 124 536 q 158 585 206 616 q 223 627 242 632 q 262 637 297 637 l 306 637 z"},"_":{"x_min":0,"x_max":500,"ha":500,"o":"m 0 -136 l 500 -136 l 500 -236 l 0 -236 z"},"v":{"x_min":0,"x_max":477,"ha":477,"o":"m 256 456 l 230 384 l 214 384 q 199 384 190 377 q 181 370 181 358 q 181 349 188 329 q 190 325 191 322 l 266 116 l 324 274 q 333 298 337 317 q 342 336 342 348 q 342 367 330 374 q 318 381 273 384 l 300 456 l 485 456 q 430 342 382 228 q 334 115 293 0 q 268 -1 244 -4 q 220 -7 196 -12 l 97 241 q 64 326 41 354 q 19 382 -13 384 l 14 456 z"},"O":{"x_min":0,"x_max":727,"ha":727,"o":"m 558 301 q 558 419 505 478 q 453 537 347 537 q 250 537 210 492 q 169 447 169 336 q 169 217 221 159 q 274 100 380 100 q 477 100 517 145 q 558 190 558 301 z m 393 648 q 528 648 612 561 q 695 475 695 336 q 695 251 661 184 q 627 118 557 63 q 508 25 454 6 q 399 -12 337 -12 q 200 -12 116 74 q 32 161 32 300 q 32 385 66 453 q 100 521 170 574 q 220 612 274 630 q 329 648 393 648 z"},"(":{"x_min":0,"x_max":329,"ha":329,"o":"m 296 717 q 236 630 208 544 q 179 458 179 366 q 179 270 210 164 q 241 58 299 -45 l 235 -112 q 234 -113 232 -115 q 227 -121 221 -121 q 209 -121 199 -104 q 188 -87 166 -30 q 126 74 111 150 q 95 227 95 305 q 95 414 127 511 q 158 609 229 717 z"},"C":{"x_min":0,"x_max":594,"ha":594,"o":"m 545 472 l 451 437 q 449 514 429 534 q 409 554 341 554 q 249 554 210 506 q 171 457 171 343 q 171 225 225 167 q 279 109 390 109 q 425 109 466 115 q 507 122 557 136 l 529 23 q 482 5 441 -4 q 400 -12 360 -12 q 209 -12 121 75 q 32 163 32 312 q 32 395 61 462 q 90 529 146 576 q 192 614 252 631 q 312 648 411 648 q 443 648 476 645 q 509 643 545 637 z"},"W":{"x_min":0,"x_max":887,"ha":887,"o":"m 579 411 l 653 182 l 729 420 q 735 439 739 461 q 742 483 742 503 q 742 538 718 551 q 694 565 624 565 l 612 565 l 639 637 l 890 637 q 857 547 832 473 q 807 398 790 343 l 743 188 q 731 149 719 104 q 706 59 691 0 l 596 -12 q 579 55 548 149 q 541 170 538 179 l 460 423 q 436 363 415 300 q 394 237 374 167 l 326 0 l 230 -12 q 216 40 201 101 q 186 162 184 168 l 141 308 l 134 331 q 62 565 2 565 l 0 565 l 30 637 l 323 637 l 296 565 q 244 563 224 550 q 204 537 204 506 q 204 492 208 471 q 212 450 220 425 l 297 175 l 365 400 q 377 440 393 499 q 409 557 425 625 l 508 648 q 509 644 512 633 q 545 518 579 411 z"},"A":{"x_min":0,"x_max":600,"ha":600,"o":"m 343 293 l 278 484 l 214 293 z m 435 396 l 493 240 q 498 226 507 201 q 552 74 607 72 l 580 0 l 319 0 l 346 72 q 374 73 387 82 q 401 92 401 111 q 401 117 398 128 q 396 139 390 156 l 369 218 l 189 218 l 177 181 q 172 166 169 152 q 167 139 167 129 q 167 99 188 86 q 208 73 261 72 l 234 0 l -20 0 l 7 72 l 8 72 q 44 72 95 207 q 102 227 106 237 l 196 477 q 211 517 224 553 q 236 588 246 622 q 268 626 294 633 q 319 639 351 648 q 374 575 395 512 q 416 449 435 396 z"},"f":{"x_min":0,"x_max":345,"ha":345,"o":"m 369 656 q 365 656 358 657 q 298 662 271 662 q 239 662 229 645 q 218 628 218 559 l 218 523 l 218 456 l 346 456 l 322 383 l 218 383 l 218 169 q 218 105 235 89 q 253 72 304 72 l 325 72 l 298 0 l 20 0 l 47 72 q 75 76 85 89 q 95 102 95 154 l 95 383 l 32 383 l 57 456 l 95 456 l 95 539 q 95 648 146 701 q 197 755 301 755 q 322 755 377 753 q 391 753 399 753 z"},"Q":{"x_min":0,"x_max":727,"ha":727,"o":"m 718 -118 q 648 -167 608 -187 q 567 -206 534 -206 q 485 -206 365 -166 l 351 -161 q 285 -139 247 -130 q 208 -121 184 -121 q 162 -121 138 -132 q 113 -143 82 -167 l 61 -133 q 129 -71 171 -47 q 213 -23 251 -23 q 294 -23 422 -62 l 437 -66 l 448 -69 q 591 -113 612 -113 q 626 -113 646 -106 q 666 -100 697 -84 z m 558 301 q 558 419 505 478 q 453 537 347 537 q 250 537 210 492 q 169 447 169 336 q 169 217 221 159 q 274 100 380 100 q 477 100 517 145 q 558 190 558 301 z m 393 648 q 528 648 612 561 q 695 475 695 336 q 695 251 661 184 q 627 118 557 63 q 508 25 454 6 q 399 -12 337 -12 q 200 -12 116 74 q 32 161 32 300 q 32 385 66 453 q 100 521 170 574 q 220 612 274 630 q 329 648 393 648 z"},"w":{"x_min":0,"x_max":736,"ha":736,"o":"m 245 456 l 218 384 q 196 381 186 375 q 177 368 177 354 q 177 343 194 297 q 202 275 206 263 l 254 124 l 322 267 q 332 289 338 311 q 344 333 344 347 q 344 369 329 376 q 314 384 267 384 l 294 456 l 525 456 l 498 384 l 491 384 q 470 384 458 376 q 447 368 447 353 q 447 345 453 325 q 458 305 469 276 l 523 128 l 577 251 q 599 300 605 319 q 611 338 611 352 q 611 368 597 376 q 583 384 553 384 l 542 384 l 569 456 l 753 456 q 694 344 641 230 q 588 116 541 0 l 455 -12 q 439 44 429 76 q 419 108 409 136 l 375 229 l 331 139 q 316 109 272 14 l 266 0 l 185 -12 q 150 97 114 195 q 78 292 48 360 q 42 374 32 379 q 23 384 5 384 l 31 456 z"},"-":{"x_min":0,"x_max":288,"ha":288,"o":"m 277 291 l 228 179 l 10 179 l 58 291 z"},"E":{"x_min":0,"x_max":551,"ha":551,"o":"m 494 637 l 494 497 l 410 472 q 409 522 384 542 q 359 561 288 561 q 251 561 240 553 q 228 545 228 515 l 228 484 l 228 369 l 258 369 q 307 369 320 379 q 333 388 334 412 l 416 434 l 416 227 l 334 204 l 334 222 q 334 261 322 273 q 310 285 258 285 l 228 285 l 228 89 q 251 84 269 82 q 287 80 299 80 q 356 80 383 101 q 409 122 414 172 l 504 199 l 504 0 l 26 0 l 53 72 q 81 73 92 84 q 102 95 102 133 l 102 159 l 102 160 l 102 477 q 102 538 89 551 q 75 565 35 565 l 62 637 z"},"s":{"x_min":0,"x_max":421,"ha":421,"o":"m 363 349 l 281 311 l 281 332 q 281 362 263 378 q 245 393 209 393 q 183 393 167 382 q 152 371 152 352 q 152 323 223 294 q 246 285 259 279 q 336 245 363 215 q 389 185 389 138 q 389 67 344 27 q 298 -12 216 -12 q 199 -12 143 -7 q 86 -2 46 0 l 46 130 l 128 167 l 128 156 q 128 105 147 85 q 167 64 213 64 q 241 64 256 77 q 271 89 271 112 q 271 146 184 184 q 171 190 164 193 q 82 229 58 256 q 35 283 35 326 q 35 393 80 430 q 124 468 203 468 q 221 468 274 462 q 328 457 363 456 z"},">":{"x_min":0,"x_max":833,"ha":833,"o":"m 129 583 l 704 347 l 704 250 l 129 13 l 129 120 l 566 298 l 129 476 z"},"l":{"x_min":0,"x_max":296,"ha":296,"o":"m 209 509 l 209 164 q 209 105 222 89 q 235 73 274 72 l 247 0 l 11 0 l 37 72 q 66 76 76 89 q 86 103 86 154 l 86 580 q 86 631 73 643 q 61 654 18 657 l 45 729 q 85 732 127 739 q 169 746 215 755 q 212 707 210 649 q 209 591 209 509 z"},"8":{"x_min":0,"x_max":507,"ha":507,"o":"m 218 304 q 183 270 165 235 q 147 200 147 169 q 147 125 176 101 q 204 76 256 76 q 307 76 335 96 q 364 115 364 151 q 364 181 336 212 q 308 243 218 304 z m 278 413 q 309 444 323 470 q 338 496 338 517 q 338 543 318 558 q 297 573 261 573 q 224 573 204 561 q 184 549 184 527 q 184 505 209 474 q 234 444 278 413 z m 164 346 q 112 384 88 420 q 64 457 64 498 q 64 567 122 608 q 181 648 283 648 q 362 648 406 621 q 449 593 449 544 q 449 505 425 468 q 401 430 337 373 q 342 369 352 362 q 480 269 480 176 q 480 87 414 37 q 348 -12 229 -12 q 135 -12 75 30 q 14 71 14 134 q 14 177 49 227 q 84 277 164 346 z"},"\\":{"x_min":0,"x_max":315,"ha":315,"o":"m 66 637 l 346 -93 l 274 -93 l -6 637 z"},"e":{"x_min":0,"x_max":483,"ha":483,"o":"m 330 237 q 315 237 267 235 q 219 233 154 230 q 156 163 189 130 q 221 97 286 97 q 327 97 368 104 q 410 111 454 126 l 419 22 q 380 5 341 -4 q 301 -12 259 -12 q 153 -12 89 49 q 25 111 25 212 q 25 321 94 395 q 163 468 266 468 q 354 468 403 412 q 453 355 453 256 l 453 237 z m 159 295 l 239 298 q 243 298 251 298 q 323 301 323 322 q 323 350 302 369 q 280 388 247 388 q 209 388 187 364 q 164 340 159 295 z"},"b":{"x_min":0,"x_max":541,"ha":541,"o":"m 196 255 l 196 165 q 196 105 208 92 q 221 79 263 79 q 326 79 353 118 q 381 157 381 244 q 381 312 355 350 q 330 387 284 387 q 236 387 216 360 q 196 333 196 255 z m 196 553 l 196 425 q 219 445 251 457 q 284 468 317 468 q 401 468 457 408 q 512 349 512 258 q 512 200 488 144 q 463 89 421 52 q 382 18 332 3 q 281 -12 197 -12 q 158 -12 133 -6 q 108 0 92 13 q 81 22 76 39 q 72 56 72 91 q 72 101 73 125 q 73 150 73 166 l 73 459 q 73 478 74 508 q 74 538 74 549 q 74 615 63 635 q 52 654 20 654 q 13 654 10 654 q 6 653 3 653 l 29 725 q 63 729 103 736 q 142 743 199 755 q 198 675 197 624 q 196 572 196 553 z"},"%":{"x_min":0,"x_max":685,"ha":685,"o":"m 517 274 q 494 274 486 259 q 478 243 478 190 q 478 96 489 73 q 500 50 529 50 q 549 50 557 66 q 564 82 564 133 q 564 229 554 251 q 543 274 517 274 z m 392 162 q 392 239 430 285 q 467 330 530 330 q 592 330 621 290 q 650 249 650 162 q 650 85 612 40 q 575 -6 512 -6 q 450 -6 421 34 q 392 75 392 162 z m 494 639 l 596 652 q 504 521 406 363 q 309 205 190 -3 l 87 -15 q 182 121 282 281 q 382 441 494 639 z m 158 587 q 135 587 127 571 q 119 556 119 502 q 119 408 130 385 q 141 362 170 362 q 190 362 198 378 q 206 395 206 445 q 206 539 196 563 q 185 587 158 587 z m 33 474 q 33 551 71 596 q 109 642 172 642 q 234 642 263 602 q 292 561 292 474 q 292 397 254 352 q 216 307 153 307 q 91 307 62 347 q 33 387 33 474 z"},"m":{"x_min":0,"x_max":836,"ha":836,"o":"m 219 390 q 251 430 286 449 q 321 468 361 468 q 402 468 434 443 q 465 418 478 374 q 509 418 549 443 q 589 468 629 468 q 657 468 684 456 q 710 444 725 426 q 741 405 748 377 q 755 349 755 299 l 755 255 l 755 173 q 755 108 766 92 q 777 76 810 72 l 783 0 l 567 0 l 594 72 q 623 76 633 89 q 643 103 643 154 l 643 261 q 643 329 629 346 q 615 364 578 364 q 527 364 505 332 q 483 299 483 222 l 483 164 q 483 105 496 89 q 509 73 548 72 l 521 0 l 294 0 l 321 72 q 350 76 360 89 q 370 103 370 154 l 370 266 q 370 330 356 347 q 342 364 305 364 q 254 364 232 332 q 210 299 210 222 l 210 164 q 210 105 223 89 q 236 73 275 72 l 248 0 l 21 0 l 48 72 q 77 76 87 89 q 97 103 97 154 l 97 293 q 97 344 84 355 q 72 367 29 370 l 56 442 q 91 443 130 450 q 170 456 219 468 z"},"#":{"x_min":0,"x_max":769,"ha":769,"o":"m 344 416 l 300 293 l 429 293 l 472 416 z m 347 715 l 452 715 l 380 512 l 504 512 l 577 715 l 681 715 l 609 512 l 747 512 l 711 415 l 575 415 l 532 294 l 675 294 l 640 198 l 498 198 l 426 -5 l 321 -5 l 393 198 l 269 198 l 196 -5 l 91 -5 l 163 198 l 22 198 l 58 294 l 198 294 l 241 415 l 93 415 l 129 512 l 275 512 z"},",":{"x_min":0,"x_max":253,"ha":253,"o":"m 56 -81 q 68 -62 73 -45 q 79 -28 79 -12 q 79 13 70 52 q 61 90 61 104 q 61 125 83 139 q 104 153 137 153 q 161 153 173 139 q 185 125 185 97 q 185 33 153 -15 q 122 -62 62 -87 z"},"n":{"x_min":0,"x_max":579,"ha":579,"o":"m 218 390 q 250 429 285 448 q 320 468 359 468 q 428 468 463 423 q 498 377 498 288 l 498 173 q 498 108 509 92 q 520 76 553 72 l 526 0 l 300 0 l 326 72 q 355 76 365 89 q 375 103 375 154 l 375 250 q 375 312 360 338 q 344 363 309 363 q 261 363 240 330 q 218 296 218 222 l 218 164 q 218 105 230 89 q 243 74 283 72 l 256 0 l 20 0 l 47 72 q 75 76 85 89 q 95 102 95 154 l 95 293 q 95 344 83 355 q 70 367 27 370 l 54 442 q 89 443 129 450 q 169 456 218 468 z"},"h":{"x_min":0,"x_max":567,"ha":567,"o":"m 209 509 l 209 390 q 241 429 276 448 q 311 468 350 468 q 419 468 454 423 q 489 377 489 288 l 489 173 q 489 108 500 92 q 511 76 544 72 l 517 0 l 291 0 l 317 72 q 346 76 356 89 q 366 103 366 154 l 366 250 q 366 312 351 338 q 335 363 300 363 q 252 363 231 330 q 209 296 209 222 l 209 164 q 209 105 222 89 q 235 73 274 72 l 247 0 l 11 0 l 37 72 q 66 76 76 89 q 86 103 86 154 l 86 580 q 86 631 73 643 q 61 654 18 657 l 45 729 q 85 732 127 739 q 169 746 215 755 q 212 705 210 647 q 209 589 209 509 z"},"z":{"x_min":0,"x_max":421,"ha":421,"o":"m 358 456 l 382 391 q 320 314 267 236 q 214 158 169 76 l 223 76 q 258 76 278 96 q 297 115 319 178 l 400 178 l 366 0 l 40 0 l 16 66 q 79 150 132 227 q 186 305 232 379 l 193 379 q 140 379 124 365 q 108 350 96 307 l 22 307 l 50 456 z"},"B":{"x_min":0,"x_max":560,"ha":560,"o":"m 222 473 l 222 390 q 230 389 240 388 q 249 387 265 387 q 307 387 333 413 q 359 438 359 480 q 359 518 336 537 q 313 556 270 556 q 241 556 231 546 q 222 537 222 497 z m 222 207 q 222 187 223 164 q 223 142 223 139 l 223 90 q 239 84 253 82 q 267 79 281 79 q 332 79 361 107 q 389 135 389 186 q 389 244 355 276 q 322 308 261 308 q 252 308 243 307 q 233 307 222 305 z m 26 0 l 53 72 q 81 73 92 84 q 102 95 102 133 l 102 159 l 102 160 l 102 481 q 102 539 88 552 q 75 565 34 565 l 25 565 l 52 637 q 60 637 68 636 q 77 636 93 636 q 126 636 189 639 q 252 642 283 642 q 375 642 430 597 q 486 552 486 479 q 486 433 460 399 q 435 366 387 350 q 449 333 483 290 q 517 248 517 187 q 517 95 455 44 q 393 -6 278 -6 q 275 -6 205 -3 q 135 0 67 0 z"},"K":{"x_min":0,"x_max":612,"ha":612,"o":"m 322 637 l 295 565 q 254 563 240 540 q 227 517 227 415 l 227 364 l 330 479 l 337 488 q 377 532 377 545 q 377 555 371 559 q 364 563 339 565 l 366 637 l 582 637 l 556 565 q 527 563 497 543 q 466 522 422 473 l 338 380 q 384 350 467 237 q 501 190 521 165 q 568 105 591 88 q 614 71 638 71 q 640 71 644 71 q 647 72 649 72 l 622 0 l 481 0 q 467 21 440 58 q 283 285 227 316 l 227 194 q 227 112 253 92 q 280 72 361 72 l 334 0 l 26 0 l 53 72 q 81 73 92 84 q 102 95 102 133 l 102 159 l 102 160 l 102 477 q 102 538 89 551 q 75 565 35 565 l 62 637 z"},"R":{"x_min":0,"x_max":568,"ha":568,"o":"m 570 72 l 543 0 l 426 0 q 405 40 371 109 q 275 301 232 301 q 229 301 226 301 q 224 300 223 300 l 223 156 q 223 105 240 90 q 256 74 316 72 l 290 0 l 26 0 l 53 72 q 81 73 92 84 q 102 95 102 133 l 102 159 l 102 160 l 102 477 q 102 538 89 551 q 75 565 35 565 l 62 637 q 139 638 220 640 q 301 642 306 642 q 395 642 442 600 q 489 558 489 480 q 489 414 452 375 q 416 336 344 326 q 396 320 465 197 q 489 153 504 129 q 527 92 540 82 q 553 72 570 72 z m 223 489 l 223 380 l 235 380 q 308 380 334 402 q 361 424 361 484 q 361 526 344 546 q 326 566 290 566 q 249 566 236 552 q 223 537 223 489 z"},"T":{"x_min":0,"x_max":569,"ha":569,"o":"m 551 637 l 551 457 l 459 431 q 459 513 441 536 q 422 558 365 558 l 350 558 q 349 543 348 527 q 347 511 347 486 l 347 463 l 347 160 q 347 97 362 84 q 377 71 426 71 q 430 71 440 71 q 451 72 457 72 l 430 0 l 119 0 l 146 72 q 186 72 204 88 q 222 104 222 140 l 222 177 l 222 463 q 222 486 221 510 q 221 534 219 558 l 205 558 q 149 558 131 539 q 113 520 110 457 l 19 431 l 19 637 z"},"P":{"x_min":0,"x_max":521,"ha":521,"o":"m 227 194 l 227 159 q 227 101 247 88 q 268 74 341 72 l 314 0 l 25 0 l 53 72 q 81 73 92 84 q 102 95 102 133 l 102 159 l 102 160 l 102 481 q 102 539 88 552 q 75 565 34 565 l 25 565 l 52 637 q 136 637 220 640 q 305 642 306 642 q 395 642 450 588 q 506 534 506 450 q 506 353 442 298 q 378 242 265 242 q 258 242 251 242 q 243 243 227 244 z m 227 439 l 227 337 q 250 335 269 334 q 289 333 305 333 q 344 333 360 355 q 375 376 375 430 q 375 501 351 533 q 327 565 273 565 q 250 565 238 556 q 227 546 227 527 z"},"|":{"x_min":0,"x_max":500,"ha":500,"o":"m 200 764 l 301 764 l 301 -236 l 200 -236 z"},"t":{"x_min":0,"x_max":350,"ha":350,"o":"m 204 456 l 264 456 q 267 456 291 457 q 314 458 337 458 l 310 385 q 292 384 277 383 q 261 383 246 383 l 204 383 l 204 159 q 204 117 216 104 q 227 92 268 92 q 286 92 303 94 q 321 97 339 102 l 300 -2 q 280 -7 259 -10 q 238 -12 215 -12 q 140 -12 111 24 q 81 60 81 180 l 81 383 l 10 383 l 36 454 q 71 460 90 485 q 108 509 122 570 l 204 593 z"},"M":{"x_min":0,"x_max":864,"ha":864,"o":"m 185 203 q 185 202 185 198 q 187 72 270 72 l 278 72 l 251 0 l 20 0 l 48 72 l 51 72 q 80 72 92 100 q 103 129 103 207 l 103 415 q 103 518 87 541 q 71 565 26 565 l 53 637 l 224 637 q 274 514 327 401 q 380 288 437 182 q 494 291 546 405 q 599 519 648 637 l 833 637 l 806 565 l 804 565 q 774 565 762 537 q 750 509 750 429 l 750 206 q 750 118 766 95 q 782 72 827 72 l 800 0 l 545 0 l 567 72 q 645 83 646 209 l 646 210 l 648 442 q 593 339 540 229 q 486 118 434 -2 l 395 -12 q 338 123 285 237 q 232 352 182 450 z"},"g":{"x_min":0,"x_max":456,"ha":456,"o":"m 122 -30 q 118 -38 117 -43 q 115 -49 115 -54 q 115 -94 153 -119 q 190 -144 252 -144 q 300 -144 331 -127 q 363 -110 363 -85 q 363 -39 250 -37 q 172 -36 122 -30 z m 281 292 q 281 343 266 363 q 250 383 214 383 q 177 383 162 364 q 148 345 148 292 q 148 239 164 220 q 180 201 220 201 q 253 201 267 221 q 281 241 281 292 z m 466 450 l 433 362 q 418 362 404 363 q 390 364 375 367 q 384 350 389 331 q 394 311 394 290 q 394 216 342 167 q 289 117 211 117 q 200 117 189 118 q 179 119 167 121 q 159 113 156 106 q 152 99 152 92 q 152 72 233 71 q 277 70 306 69 q 378 66 412 36 q 446 6 446 -54 q 446 -131 377 -180 q 308 -229 195 -229 q 112 -229 63 -196 q 13 -162 13 -108 q 13 -83 25 -59 q 37 -36 61 -11 q 45 1 38 15 q 31 28 31 47 q 31 66 45 85 q 59 104 109 144 q 72 161 53 196 q 34 231 34 281 q 34 365 85 416 q 137 468 221 468 q 252 468 278 460 q 304 452 323 437 q 362 438 398 442 q 433 445 466 450 z"},"j":{"x_min":0,"x_max":275,"ha":275,"o":"m 209 261 l 209 0 q 209 -93 167 -143 q 126 -192 21 -229 l 21 -176 q 58 -154 72 -116 q 87 -77 87 29 l 87 67 l 87 293 q 87 344 74 355 q 62 367 19 370 l 46 442 q 85 444 127 451 q 170 457 216 468 q 213 394 211 339 q 209 283 209 261 z m 77 494 q 77 500 78 514 q 81 637 160 637 q 187 637 199 626 q 212 615 212 591 q 212 545 188 525 q 164 505 77 494 z"},"i":{"x_min":0,"x_max":308,"ha":308,"o":"m 218 353 l 218 164 q 218 105 230 89 q 243 74 283 72 l 256 0 l 20 0 l 47 72 q 75 76 85 89 q 95 102 95 154 l 95 293 q 95 344 83 355 q 70 367 27 370 l 54 442 q 93 444 135 451 q 176 457 221 468 q 219 443 219 418 q 218 393 218 353 z m 84 494 q 84 500 84 513 q 87 637 167 637 q 194 637 207 626 q 219 615 219 591 q 219 545 195 525 q 170 505 84 494 z"},"y":{"x_min":0,"x_max":493,"ha":493,"o":"m 272 456 l 246 384 q 217 383 205 376 q 193 369 193 351 q 193 340 197 323 q 202 307 210 285 l 275 115 l 329 261 q 342 296 349 318 q 355 339 355 348 q 355 367 340 375 q 326 383 290 384 l 316 456 l 499 456 q 451 343 430 291 q 408 239 393 200 l 300 -34 q 247 -169 209 -199 q 172 -228 94 -228 q 74 -228 60 -226 q 46 -224 32 -220 l 67 -130 q 70 -130 74 -131 q 93 -133 105 -133 q 139 -133 160 -113 q 182 -92 212 -26 l 92 269 l 89 276 q 47 376 1 384 l 28 456 z"},"@":{"x_min":0,"x_max":986,"ha":986,"o":"m 574 156 q 544 107 509 83 q 473 60 430 60 q 361 60 322 104 q 282 149 282 227 q 282 283 307 335 q 331 388 377 431 q 411 462 449 479 q 488 495 528 495 q 575 495 601 473 q 628 451 636 406 l 660 486 l 753 486 l 668 184 l 667 181 q 660 152 660 138 q 660 115 670 102 q 680 89 697 89 q 713 89 738 101 q 764 113 786 132 q 836 175 863 238 q 890 301 890 377 q 890 511 798 595 q 706 678 559 678 q 492 678 431 660 q 371 641 320 605 q 235 546 190 454 q 144 363 144 251 q 144 87 247 -9 q 350 -105 523 -105 q 604 -105 679 -80 q 754 -56 829 -4 l 848 -29 q 774 -84 693 -112 q 611 -139 523 -139 q 432 -139 353 -117 q 275 -94 218 -52 q 144 3 104 84 q 65 165 65 261 q 65 337 90 407 q 116 477 165 536 q 236 621 334 667 q 433 712 547 712 q 717 712 820 620 q 922 527 922 374 q 922 295 893 228 q 864 160 810 111 q 781 85 748 72 q 715 58 681 58 q 633 58 605 83 q 578 109 574 156 z m 546 463 q 516 463 491 441 q 466 419 442 371 q 414 315 399 266 q 385 217 385 177 q 385 138 402 115 q 418 93 447 93 q 478 93 508 123 q 537 153 564 212 q 583 257 595 302 q 606 348 606 382 q 606 421 590 442 q 575 463 546 463 z"},".":{"x_min":0,"x_max":253,"ha":253,"o":"m 47 -12 l 47 -9 q 53 38 53 61 q 53 67 52 75 q 52 82 52 83 q 52 120 76 136 q 100 153 152 153 q 175 153 183 143 q 192 132 192 101 q 192 48 167 28 q 142 8 47 -12 z"},"p":{"x_min":0,"x_max":552,"ha":552,"o":"m 210 85 l 293 85 q 347 85 371 117 q 395 149 395 220 q 395 299 373 338 q 350 376 303 376 q 254 376 232 339 q 210 303 210 220 z m 210 406 q 239 438 272 453 q 305 468 348 468 q 424 468 474 408 q 524 348 524 258 q 524 193 491 131 q 459 68 406 30 q 375 8 332 -1 q 290 -11 210 -12 l 210 -43 q 210 -118 231 -137 q 251 -157 326 -157 l 299 -229 l 12 -229 l 39 -157 q 66 -154 77 -141 q 88 -128 88 -100 l 88 293 q 88 344 75 355 q 62 367 20 370 l 47 442 q 82 443 121 450 q 161 456 210 468 z"},"X":{"x_min":0,"x_max":593,"ha":593,"o":"m 301 637 l 275 565 q 261 563 252 555 q 243 546 243 536 q 243 523 250 508 q 256 493 278 461 l 306 419 l 339 469 q 353 490 358 502 q 364 515 364 525 q 364 544 352 554 q 340 565 318 565 l 344 637 l 582 637 l 555 565 q 523 563 489 536 q 455 509 422 459 l 351 353 l 443 217 q 449 209 458 193 q 540 71 586 71 q 587 71 591 71 q 594 72 596 72 l 569 0 l 300 0 l 327 72 q 346 73 357 82 q 368 90 368 103 q 368 113 362 127 q 355 140 335 170 l 282 249 l 230 170 q 216 150 209 134 q 202 117 202 107 q 202 89 218 81 q 233 73 267 72 l 241 0 l -3 0 l 24 72 q 53 75 80 97 q 106 119 149 183 l 237 316 l 182 398 q 105 511 74 538 q 42 565 9 565 l 1 565 l 28 637 z"},"*":{"x_min":0,"x_max":500,"ha":500,"o":"m 277 487 q 306 508 331 528 q 355 547 377 566 l 455 501 q 413 485 375 470 q 337 456 303 441 q 333 427 363 416 q 393 404 422 394 l 405 294 q 371 322 338 348 q 306 373 277 395 q 281 356 293 275 q 295 261 296 254 l 201 219 q 204 242 212 304 q 220 365 224 395 q 191 370 167 351 q 143 332 124 315 l 46 380 q 77 392 113 406 q 149 421 197 441 q 166 455 136 467 q 107 479 79 488 l 96 587 q 129 560 161 535 q 192 510 223 487 q 218 528 213 558 q 208 588 204 614 l 300 648 q 292 601 286 561 q 280 521 277 487 z"},"Y":{"x_min":0,"x_max":522,"ha":522,"o":"m 321 308 l 321 156 q 321 102 338 89 q 356 76 419 72 l 392 0 l 124 0 l 151 72 q 179 73 190 84 q 200 95 200 133 l 200 159 l 200 160 l 200 303 l 118 433 q 114 439 107 451 q 35 565 -21 565 l -29 565 l -2 637 l 297 637 l 270 565 l 263 565 q 233 565 220 558 q 206 552 206 538 q 206 528 214 507 q 223 486 237 462 l 283 384 q 323 451 354 512 q 385 573 405 626 q 440 630 482 637 q 524 644 573 653 q 489 544 423 453 q 356 361 321 308 z"},"c":{"x_min":0,"x_max":418,"ha":418,"o":"m 397 345 q 357 359 319 367 q 280 374 243 374 l 234 374 q 207 374 197 370 q 188 366 180 354 q 168 335 161 306 q 154 277 154 245 q 154 166 186 132 q 218 98 294 98 q 311 98 340 101 q 370 103 408 108 l 372 0 q 337 -6 310 -9 q 283 -12 259 -12 q 155 -12 92 51 q 28 114 28 216 q 28 326 99 396 q 170 467 287 467 q 301 467 319 465 q 337 463 368 458 z"},"!":{"x_min":0,"x_max":293,"ha":293,"o":"m 212 137 q 209 117 208 101 q 207 85 207 71 l 207 59 q 207 17 186 2 q 165 -12 118 -12 q 98 -12 90 -3 q 82 7 82 31 q 82 83 104 101 q 126 119 212 137 z m 111 144 q 106 256 99 369 q 92 482 82 596 l 220 648 q 207 510 201 360 q 195 209 195 207 q 193 179 125 150 q 116 146 111 144 z"},"/":{"x_min":0,"x_max":315,"ha":315,"o":"m 321 637 l 41 -93 l -31 -93 l 249 637 z"},"[":{"x_min":0,"x_max":329,"ha":329,"o":"m 325 705 l 299 629 l 205 629 q 203 556 202 474 q 201 392 201 294 q 201 201 202 120 q 203 40 205 -33 l 325 -33 l 299 -109 l 101 -109 q 104 -1 106 100 q 108 201 108 294 q 108 384 106 488 q 104 591 101 705 z"},"6":{"x_min":0,"x_max":507,"ha":507,"o":"m 181 394 q 173 370 170 344 q 166 317 166 284 q 166 174 191 128 q 215 82 272 82 q 319 82 338 111 q 357 139 357 222 q 357 312 323 355 q 289 397 216 397 q 211 397 203 396 q 195 396 181 394 z m 367 664 q 314 633 276 590 q 238 547 214 490 q 231 492 246 493 q 260 494 267 494 q 369 494 423 437 q 477 379 477 271 q 477 149 414 69 q 350 -11 253 -11 q 154 -11 96 67 q 39 146 39 281 q 39 433 134 556 q 228 680 378 725 z"},"r":{"x_min":0,"x_max":366,"ha":366,"o":"m 95 154 l 95 293 q 95 344 83 355 q 70 367 27 370 l 54 442 q 90 443 128 450 q 166 457 205 468 l 205 343 q 225 406 263 438 q 301 469 359 469 q 366 469 370 469 q 374 469 377 468 l 334 350 q 333 350 331 350 q 312 352 304 352 q 254 352 236 322 q 218 291 218 203 l 218 164 q 218 104 233 88 q 248 72 293 72 l 302 72 l 275 0 l 20 0 l 47 72 q 75 76 85 89 q 95 102 95 154 z"},"2":{"x_min":0,"x_max":507,"ha":507,"o":"m 474 118 l 434 0 l 43 0 l 36 87 q 208 252 270 334 q 332 416 332 470 q 332 505 308 523 q 284 541 236 541 q 201 541 153 528 q 105 516 42 489 l 92 622 q 134 635 178 641 q 221 648 262 648 q 358 648 412 608 q 466 568 466 497 q 466 428 412 352 q 357 276 175 112 q 250 113 324 114 q 399 116 474 118 z"},"{":{"x_min":0,"x_max":500,"ha":500,"o":"m 416 740 l 416 710 q 357 709 335 684 q 314 658 314 581 l 314 516 q 314 406 288 366 q 262 326 192 310 q 262 294 288 255 q 314 215 314 105 l 314 39 q 314 -38 335 -63 q 357 -89 416 -90 l 416 -119 q 301 -119 260 -84 q 218 -48 218 50 l 218 144 q 218 225 190 255 q 163 285 87 292 l 87 329 q 163 336 190 366 q 218 396 218 477 l 218 571 q 218 669 260 705 q 301 740 416 740 z"},"9":{"x_min":0,"x_max":507,"ha":507,"o":"m 142 -27 q 195 4 233 47 q 271 90 295 147 q 289 146 277 146 q 248 143 237 143 q 139 143 86 201 q 32 259 32 365 q 32 487 96 567 q 159 648 256 648 q 355 648 413 569 q 471 491 471 356 q 471 205 376 81 q 281 -43 131 -88 z m 328 243 q 336 267 339 293 q 343 319 343 353 q 343 463 319 509 q 294 555 238 555 q 191 555 171 526 q 152 497 152 423 q 152 326 185 283 q 218 240 293 240 q 298 240 310 241 q 322 243 328 243 z"}," ":{"x_min":0,"x_max":253,"ha":253,"o":""},"I":{"x_min":0,"x_max":329,"ha":329,"o":"m 303 637 l 276 565 q 248 564 238 553 q 227 542 227 502 l 227 476 l 227 160 q 227 97 241 84 q 255 72 298 72 l 303 72 l 277 0 l 26 0 l 53 72 q 81 73 92 84 q 102 95 102 133 l 102 159 l 102 160 l 102 481 q 102 539 88 552 q 75 565 34 565 l 26 565 l 52 637 z"},"H":{"x_min":0,"x_max":689,"ha":689,"o":"m 314 637 l 287 565 q 252 560 240 543 q 227 527 227 471 l 227 459 l 227 389 q 245 387 267 387 q 289 386 338 386 l 402 386 q 406 386 419 387 q 432 387 461 389 l 461 492 q 461 542 446 553 q 431 565 384 565 l 372 565 l 399 637 l 662 637 l 636 565 q 607 564 597 552 q 586 541 586 498 l 586 476 l 586 160 q 586 97 600 84 q 614 72 657 72 l 663 72 l 637 0 l 374 0 l 401 72 q 433 77 447 93 q 461 108 461 140 l 461 177 l 461 303 q 451 304 433 305 q 407 307 399 307 l 318 307 l 284 307 q 278 307 262 306 q 247 305 227 303 l 227 148 q 227 94 243 83 q 258 72 308 72 l 316 72 l 289 0 l 26 0 l 53 72 q 81 73 92 84 q 102 95 102 133 l 102 159 l 102 160 l 102 481 q 102 539 88 552 q 75 565 34 565 l 25 565 l 52 637 z"},"4":{"x_min":0,"x_max":507,"ha":507,"o":"m 292 378 l 292 483 q 236 416 191 361 q 145 306 103 257 l 290 257 q 291 280 292 305 q 292 330 292 378 z m 409 257 q 438 258 452 259 q 467 260 480 262 l 445 160 l 409 160 q 410 121 412 82 q 414 42 418 2 l 289 -49 q 290 -32 290 -4 q 291 49 291 65 q 291 87 291 110 q 291 134 290 160 l 40 160 l 11 264 q 85 349 158 437 q 230 524 302 614 l 419 648 q 413 514 409 268 z"},"~":{"x_min":0,"x_max":833,"ha":833,"o":"m 747 392 l 747 284 q 696 250 651 233 q 606 217 562 217 q 540 217 517 221 q 495 225 472 232 q 460 236 438 244 q 331 281 275 281 q 233 281 188 262 q 143 244 87 204 l 87 312 q 139 347 187 365 q 234 382 276 382 q 333 382 418 354 l 420 353 q 429 350 447 344 q 522 317 564 317 q 605 317 649 335 q 693 353 747 392 z"},"D":{"x_min":0,"x_max":699,"ha":699,"o":"m 53 72 q 81 73 92 84 q 102 95 102 133 l 102 159 l 102 160 l 102 481 q 102 539 88 552 q 75 565 34 565 l 25 565 l 52 637 q 62 637 80 637 q 99 636 108 636 q 161 636 235 639 q 309 642 329 642 q 409 642 460 629 q 512 615 552 585 q 605 545 635 477 q 666 410 666 331 q 666 271 645 210 q 624 149 588 102 q 542 44 486 19 q 429 -6 339 -6 q 312 -6 241 -2 q 171 1 128 1 q 105 1 80 1 q 54 0 25 0 z m 227 151 l 227 116 q 227 112 228 105 q 228 99 228 95 q 267 86 296 82 q 325 78 348 78 q 395 78 426 94 q 456 110 480 147 q 502 182 515 230 q 528 278 528 327 q 528 439 473 502 q 417 565 321 565 q 269 565 248 541 q 227 517 227 444 z"},"^":{"x_min":0,"x_max":1000,"ha":1000,"o":"m 442 714 l 557 714 l 797 438 l 742 438 l 499 620 l 256 438 l 201 438 z"},"0":{"x_min":0,"x_max":507,"ha":507,"o":"m 342 319 q 342 452 320 500 q 298 548 243 548 q 195 548 179 518 q 164 487 164 347 q 164 183 186 136 q 208 89 266 89 q 311 89 326 121 q 342 154 342 295 z m 269 648 q 375 648 424 568 q 474 489 474 318 q 474 166 410 77 q 345 -11 237 -11 q 131 -11 82 68 q 32 147 32 318 q 32 470 96 559 q 161 648 269 648 z"},"F":{"x_min":0,"x_max":521,"ha":521,"o":"m 494 637 l 494 497 l 410 472 q 409 522 384 542 q 359 561 288 561 q 251 561 240 553 q 228 545 228 515 l 228 484 l 228 369 l 258 369 q 307 369 320 379 q 333 388 334 412 l 416 434 l 416 227 l 334 204 l 334 222 q 334 261 322 273 q 310 285 258 285 l 228 285 l 228 158 q 228 103 245 90 q 261 76 323 72 l 296 0 l 26 0 l 53 72 q 81 73 92 84 q 102 95 102 133 l 102 159 l 102 160 l 102 477 q 102 538 89 551 q 75 565 35 565 l 62 637 z"},"`":{"x_min":0,"x_max":500,"ha":500,"o":"m 354 522 l 308 522 l 138 610 q 111 624 102 636 q 92 648 92 664 q 92 684 106 698 q 120 712 140 712 q 157 712 172 703 q 187 695 211 670 z"},"k":{"x_min":0,"x_max":543,"ha":543,"o":"m 204 509 l 204 292 l 208 294 q 302 353 302 367 q 302 377 293 380 q 285 384 257 384 l 284 456 l 525 456 l 498 384 l 485 384 q 437 384 365 328 q 344 312 332 303 q 363 279 411 205 q 459 131 484 100 q 495 86 509 79 q 523 73 543 72 l 516 0 l 391 0 q 308 136 270 194 q 231 251 204 281 l 204 164 q 204 105 217 89 q 229 73 269 72 l 243 0 l 11 0 l 37 72 q 66 76 76 89 q 86 103 86 154 l 86 580 q 86 631 73 643 q 61 654 18 657 l 45 729 q 83 732 125 739 q 166 746 210 755 q 207 705 206 647 q 204 589 204 509 z"},"u":{"x_min":0,"x_max":560,"ha":560,"o":"m 205 369 l 205 206 q 205 143 222 117 q 238 92 277 92 q 308 92 330 106 q 353 121 353 140 l 353 278 q 353 336 340 352 q 327 369 287 370 l 314 441 q 365 447 404 454 q 444 460 479 469 q 477 437 476 409 q 475 381 475 356 l 475 144 q 475 100 487 88 q 498 76 534 72 l 507 0 l 353 0 l 353 53 q 327 21 293 4 q 260 -12 223 -12 q 153 -12 118 33 q 83 78 83 168 l 83 269 q 83 334 72 350 q 61 366 28 370 l 54 441 q 93 445 132 452 q 170 459 208 469 q 207 442 206 417 q 205 393 205 369 z"},"]":{"x_min":0,"x_max":329,"ha":329,"o":"m 228 705 q 225 595 223 491 q 221 388 221 294 q 221 199 223 98 q 225 -3 228 -109 l 4 -109 l 30 -33 l 124 -33 q 126 41 127 122 q 128 202 128 294 q 128 387 127 469 q 126 552 124 629 l 4 629 l 30 705 z"},"U":{"x_min":0,"x_max":663,"ha":663,"o":"m 337 637 l 311 565 l 290 565 q 255 565 241 546 q 227 527 227 459 l 227 283 q 227 155 254 115 q 282 76 349 76 q 386 76 415 91 q 443 105 457 132 q 467 150 471 175 q 475 200 475 252 l 475 283 l 475 499 q 475 534 456 550 q 437 566 394 566 q 392 566 386 565 q 380 565 377 565 l 404 637 l 638 637 l 612 565 q 583 564 573 552 q 562 541 562 501 l 562 469 l 562 283 q 562 184 552 141 q 542 99 519 67 q 490 28 442 8 q 394 -11 328 -11 q 270 -11 227 5 q 183 21 154 52 q 125 83 113 127 q 101 171 101 283 l 101 476 q 101 538 88 551 q 74 565 33 565 l 24 565 l 51 637 z"},"o":{"x_min":0,"x_max":537,"ha":537,"o":"m 378 212 q 378 298 347 338 q 316 377 248 377 q 197 377 178 353 q 159 328 159 255 q 159 158 189 120 q 219 81 292 81 q 341 81 360 107 q 378 133 378 212 z m 282 468 q 388 468 447 408 q 507 349 507 244 q 507 130 438 59 q 368 -12 256 -12 q 149 -12 89 47 q 29 107 29 212 q 29 327 98 397 q 168 468 282 468 z"},"N":{"x_min":0,"x_max":699,"ha":699,"o":"m 187 186 q 189 115 210 94 q 232 72 297 72 l 320 72 l 292 0 l 18 0 l 44 72 l 52 72 q 83 72 95 108 q 106 145 106 290 l 106 398 q 106 499 89 532 q 73 565 28 565 l 22 565 l 49 637 l 186 637 q 272 511 357 399 q 442 288 525 192 l 517 450 q 515 523 492 544 q 469 565 393 565 l 385 565 l 412 637 l 686 637 l 659 565 l 655 565 q 622 565 610 534 q 598 503 598 375 l 598 347 l 598 215 q 598 158 599 110 q 601 62 603 17 l 523 -19 q 434 110 348 223 q 262 335 182 429 z"},"+":{"x_min":0,"x_max":833,"ha":833,"o":"m 367 596 l 466 596 l 466 347 l 709 347 l 709 250 l 466 250 l 466 0 l 367 0 l 367 250 l 124 250 l 124 347 l 367 347 z"},"G":{"x_min":0,"x_max":667,"ha":667,"o":"m 577 467 l 483 432 l 483 441 q 483 509 455 533 q 427 558 350 558 q 251 558 211 508 q 171 458 171 336 q 171 217 230 149 q 289 80 390 80 q 431 80 446 92 q 460 104 460 158 q 460 208 441 221 q 421 234 343 240 l 369 315 l 664 315 l 637 240 l 625 240 q 599 240 590 219 q 580 197 579 124 l 578 29 q 522 9 467 -2 q 411 -12 361 -12 q 213 -12 123 77 q 32 167 32 314 q 32 396 61 463 q 90 529 146 576 q 192 614 251 631 q 310 648 400 648 q 435 648 474 645 q 514 643 577 635 z"},"q":{"x_min":0,"x_max":542,"ha":542,"o":"m 347 301 l 347 321 q 347 331 346 343 q 346 345 346 346 l 346 375 q 340 375 329 375 q 289 377 273 377 q 213 377 187 341 q 160 305 160 226 q 160 153 187 112 q 214 72 262 72 q 301 72 324 95 q 347 118 347 157 l 347 212 z m 470 187 l 470 -75 q 470 -131 483 -144 q 497 -157 536 -157 l 541 -157 l 515 -229 l 240 -229 l 267 -157 l 276 -157 q 316 -157 332 -138 q 347 -120 347 -56 l 347 -5 l 347 38 q 324 13 293 0 q 262 -12 225 -12 q 139 -12 84 44 q 29 101 29 190 q 29 248 52 303 q 75 358 115 398 q 153 435 200 451 q 248 468 314 468 q 324 468 354 467 q 384 466 404 466 q 421 466 464 468 q 470 468 473 468 q 472 366 471 295 q 470 225 470 187 z"},"d":{"x_min":0,"x_max":550,"ha":550,"o":"m 346 110 l 346 254 q 346 330 326 361 q 307 393 262 393 q 214 393 185 351 q 155 310 155 241 q 155 171 188 129 q 221 88 276 88 q 297 88 316 94 q 334 100 346 110 z m 471 556 l 471 220 q 471 124 484 98 q 497 72 534 72 l 536 72 l 509 0 l 362 0 l 362 36 q 331 11 300 0 q 269 -12 234 -12 q 147 -12 87 54 q 27 120 27 216 q 27 316 97 392 q 167 468 256 468 q 283 468 304 463 q 326 458 346 446 l 346 573 q 346 624 333 635 q 320 647 278 650 l 305 722 q 347 729 391 737 q 434 745 479 755 q 475 689 473 636 q 471 583 471 556 z"},"1":{"x_min":0,"x_max":507,"ha":507,"o":"m 331 444 l 331 181 q 331 107 347 88 q 363 69 410 69 q 420 69 431 70 q 441 70 453 72 l 426 0 l 77 0 l 104 72 l 117 72 q 177 72 193 84 q 208 96 208 152 l 208 183 l 208 478 q 208 518 197 528 q 185 539 154 539 q 137 539 117 535 q 97 532 74 525 l 94 589 q 150 602 211 617 q 271 633 338 653 q 335 576 333 519 q 331 462 331 444 z"},"5":{"x_min":0,"x_max":507,"ha":507,"o":"m 424 524 q 397 521 374 520 q 351 519 330 519 q 312 519 276 521 q 239 522 220 522 q 206 522 193 522 q 180 521 167 521 l 150 413 q 159 414 175 414 q 192 415 196 415 q 312 415 379 358 q 447 300 447 205 q 447 84 344 8 q 240 -68 46 -90 l 79 -25 q 192 4 258 62 q 323 119 323 187 q 323 244 282 273 q 240 302 159 302 q 138 302 112 299 q 86 296 55 290 l 115 637 q 159 635 202 635 q 245 634 302 634 l 318 634 q 365 634 398 637 q 432 641 464 648 z"}}}
